<svg xmlns="http://www.w3.org/2000/svg" xml:space="preserve" style="enable-background:new 0 0 30.3 36.5" viewBox="0 0 30.3 36.5"><path d="M15.1 36.4c9.2.2 16.6-7.4 14.9-17.8C28.5 9.4 22 0 15.1 0S1.7 9.4.2 18.6c-1.7 10.5 5.7 18.1 14.9 17.8z" style="fill:#f7941d"/><path d="M22 7.7c.2 0 .4-.2.4-.4 0-.1 0-.2-.1-.2-1.5-2.2-6.7-8.2-13-1.8C7.6 6.8 6 9.1 5.1 11.6c-1.9 5.5-.6 10.1 2.7 11.3 3.3 1.2 8.4-2.1 10.4-7.6.7-2 .9-4.1.8-5.8-.1-.8.5-1.6 1.3-1.6.6-.1 1.2-.2 1.7-.2z" style="fill:#fab413"/><path d="M6.5 29.9c-.3-.1-.5.3-.3.5 2.2 2 7.8 5.9 14.3 2.6 7.1-3.6 7.4-11.7 6.4-15.9-.1-.3-.5-.3-.6 0-.4 2.9-1.9 9.5-7.9 12.2-5.2 2.3-9.7 1.3-11.9.6z" style="fill:#ca7918"/><path d="M7.3 10.7S8 6.8 12 4.4s4.5 1.8 2.3 3-4.3 0-7 3.3z" style="fill:#fcd884"/><path d="M13 21c-.5 0-.8-.1-.9-.1-.1-.1-.1-.4-.2-.9 0-.1-.1-.2-.1-.3v-1.1c0-.2-.1-.8-.3-1.8v-.5c0-.1-.1-.3-.1-.5V15c0-.4-.1-.6-.1-.7v-.4c0-.2 0-.5-.1-.9 0-.1 0-.3-.1-.6-.1-.6-.2-1.2-.2-1.6 0-.3-.1-.7-.2-1.1v-.1s.1 0 .1-.1c.3-.1.7-.2 1.2-.2h.7c.3 0 .5 0 .7-.1.1 0 .2 0 .4-.1h4.6c.1.1.2.1.3.2.3.1.5.2.7.4.1.1.1.2.1.4 0 .8-.1 1.4-.3 2l-.7 4v.2c-.1.1-.1.2-.1.4l-.1.4v.2c0 .4-.1.9-.2 1.6-.1.5-.3 1.2-.4 2 0 0 0 .1-.1.1s-.2.1-.3.1c-.3.1-1 .1-2.1.1H14c-.4-.1-.7-.1-1-.2zm2.7 7H13.8c-.7 0-1.2 0-1.6-.1-.2 0-.3 0-.3-.1l-.1-2.4v-1.1c0-.1 0-.2.1-.3v-.5c0-.1 0-.2.1-.3.1-.1.2-.2.4-.2H16c.6 0 1.1 0 1.5.1.5.1.8.2.8.5V25c0 .1 0 .6.1 1.3v1c0 .3-.1.4-.1.6-.2.1-.3.1-.5.2h-.5c-.7 0-1.2 0-1.6-.1z" style="fill:#fff"/></svg>